<svg xmlns="http://www.w3.org/2000/svg" width="24" height="24" viewBox="0 0 24 24" fill="none" stroke="#6F8F5E" stroke-width="2" stroke-linecap="round" stroke-linejoin="round">
  <path d="M12 15.5A3.5 3.5 0 1 0 12 8a3.5 3.5 0 0 0 0 7.5Z"/>
  <path d="M19.4 15a1.7 1.7 0 0 0 .3 1.9l.1.1a2 2 0 1 1-2.8 2.8l-.1-.1a1.7 1.7 0 0 0-1.9-.3 1.7 1.7 0 0 0-1 1.6V21a2 2 0 1 1-4 0v-.1a1.7 1.7 0 0 0-1-1.6 1.7 1.7 0 0 0-1.9.3l-.1.1A2 2 0 1 1 4.2 17l.1-.1a1.7 1.7 0 0 0 .3-1.9 1.7 1.7 0 0 0-1.6-1H3a2 2 0 1 1 0-4h.1a1.7 1.7 0 0 0 1.6-1 1.7 1.7 0 0 0-.3-1.9L4.2 7A2 2 0 1 1 7 4.2l.1.1a1.7 1.7 0 0 0 1.9.3h.1A1.7 1.7 0 0 0 10 3V3a2 2 0 1 1 4 0v.1a1.7 1.7 0 0 0 1 1.6 1.7 1.7 0 0 0 1.9-.3l.1-.1A2 2 0 1 1 19.8 7l-.1.1a1.7 1.7 0 0 0-.3 1.9v.1A1.7 1.7 0 0 0 21 10h.1a2 2 0 1 1 0 4H21a1.7 1.7 0 0 0-1.6 1Z"/>
</svg>
